<?xml version="1.0" encoding="iso-8859-1"?>
<!-- Generator: Adobe Illustrator 19.0.0, SVG Export Plug-In . SVG Version: 6.00 Build 0)  -->
<svg version="1.1" id="Layer_1" xmlns="http://www.w3.org/2000/svg" xmlns:xlink="http://www.w3.org/1999/xlink" x="0px" y="0px"
	 viewBox="0 0 511.999 511.999" style="enable-background:new 0 0 511.999 511.999;" xml:space="preserve">
<g>
	<path style="fill:#B3404A;" d="M429.202,408.079c-0.008,0-0.015,0-0.023,0l-352.95-0.515c-31.387-0.046-59.56-21.09-68.511-51.175
		l-4.794-16.122c-8.948-30.085,3.142-63.106,29.401-80.299L327.613,66.63c4.068-2.662,9.151-3.246,13.717-1.575
		c4.565,1.671,8.071,5.402,9.456,10.06l92.875,312.225c0.617,1.666,0.955,3.471,0.955,5.352c0,8.497-6.888,15.385-15.385,15.385
		C429.225,408.079,429.211,408.079,429.202,408.079z M327.182,103.689L49.179,285.711c-14.971,9.803-21.865,28.63-16.764,45.784
		l4.794,16.12c5.103,17.153,21.167,29.152,39.064,29.178l332.291,0.485L327.182,103.689z"/>
	<path style="fill:#B3404A;" d="M172.444,482.567c-50.515,0-90.927-38.869-91.999-88.49c-0.183-8.494,6.556-15.531,15.05-15.714
		c8.468-0.155,15.531,6.554,15.714,15.048c0.708,32.739,27.604,58.385,61.236,58.385c17.745,0,34.607-7.691,46.263-21.098
		c5.572-6.412,15.291-7.092,21.704-1.518s7.092,15.291,1.517,21.705C224.429,471.021,199.102,482.567,172.444,482.567z"/>
</g>
<polygon style="fill:#F4B2B0;" points="229.28,149.403 301.594,392.508 429.202,392.694 336.041,79.501 "/>
<g>
	<path style="fill:#B3404A;" d="M429.202,408.077c-0.008,0-0.015,0-0.023,0l-127.608-0.186c-6.799-0.009-12.786-4.482-14.723-10.999
		l-72.314-243.104c-1.938-6.517,0.631-13.533,6.319-17.257L327.613,66.63c4.066-2.662,9.151-3.246,13.717-1.575
		c4.565,1.671,8.069,5.402,9.456,10.06l93.163,313.192c1.385,4.659,0.488,9.699-2.42,13.593
		C438.624,405.788,434.054,408.077,429.202,408.077z M313.074,377.14l95.492,0.138l-81.384-273.589l-79.891,52.309L313.074,377.14z"
		/>
	<path style="fill:#B3404A;" d="M439.714,442.631c-6.632,0-12.753-4.322-14.74-11.002L311.22,49.206
		c-2.422-8.143,2.215-16.71,10.359-19.133c8.151-2.42,16.711,2.215,19.134,10.36l113.754,382.421
		c2.422,8.143-2.215,16.71-10.359,19.133C442.644,442.423,441.165,442.631,439.714,442.631z"/>
	<path style="fill:#B3404A;" d="M422.446,144.027c-2.194,0-4.42-0.471-6.537-1.466c-7.688-3.615-10.991-12.78-7.376-20.47
		l16.768-35.659c3.617-7.691,12.779-10.994,20.471-7.376c7.688,3.615,10.991,12.78,7.376,20.47l-16.768,35.659
		C433.759,140.758,428.223,144.027,422.446,144.027z"/>
	<path style="fill:#B3404A;" d="M457.698,225.156c-6.954,0-13.259-4.746-14.95-11.805c-1.98-8.263,3.114-16.567,11.379-18.545
		l38.9-9.317c8.265-1.98,16.567,3.115,18.545,11.379c1.98,8.263-3.114,16.567-11.379,18.547l-38.9,9.317
		C460.09,225.019,458.884,225.156,457.698,225.156z"/>
	<path style="fill:#B3404A;" d="M494.136,337.643c-3.302,0-6.628-1.059-9.436-3.242l-31.104-24.191
		c-6.706-5.217-7.916-14.882-2.699-21.59c5.22-6.709,14.885-7.914,21.59-2.699l31.104,24.191c6.706,5.217,7.916,14.882,2.699,21.59
		C503.258,335.602,498.721,337.643,494.136,337.643z"/>
</g>
<g>
</g>
<g>
</g>
<g>
</g>
<g>
</g>
<g>
</g>
<g>
</g>
<g>
</g>
<g>
</g>
<g>
</g>
<g>
</g>
<g>
</g>
<g>
</g>
<g>
</g>
<g>
</g>
<g>
</g>
</svg>
