<?xml version="1.0" encoding="iso-8859-1"?>
<!-- Generator: Adobe Illustrator 19.0.0, SVG Export Plug-In . SVG Version: 6.00 Build 0)  -->
<svg version="1.1" id="Layer_1" xmlns="http://www.w3.org/2000/svg" xmlns:xlink="http://www.w3.org/1999/xlink" x="0px" y="0px"
	 viewBox="0 0 512 512" style="enable-background:new 0 0 512 512;" xml:space="preserve">
<polygon style="fill:#F4B2B0;" points="384.854,242.39 127.146,242.39 127.146,407.741 238.758,407.741 238.758,464.096 
	306.383,407.741 384.854,407.741 "/>
<g>
	<path style="fill:#B3404A;" d="M238.755,477.855c-1.978,0-3.97-0.428-5.832-1.299c-4.836-2.264-7.923-7.121-7.923-12.459v-42.598
		h-97.855c-7.597,0-13.757-6.16-13.757-13.757V242.39c0-7.597,6.16-13.757,13.757-13.757h257.709c7.597,0,13.757,6.16,13.757,13.757
		v165.351c0,7.597-6.16,13.757-13.757,13.757h-73.491l-63.798,53.166C245.044,476.766,241.915,477.855,238.755,477.855z
		 M140.903,393.985h97.855c7.597,0,13.757,6.16,13.757,13.757v26.982l45.06-37.552c2.474-2.059,5.59-3.188,8.807-3.188h64.714
		V256.147H140.903V393.985z"/>
	<path style="fill:#B3404A;" d="M71.484,238.288c-1.978,0-3.97-0.428-5.832-1.299c-4.836-2.264-7.923-7.121-7.923-12.459v-29.292
		H13.757C6.16,195.238,0,189.078,0,181.481c0-7.597,6.16-13.757,13.757-13.757h57.729c7.597,0,13.757,6.16,13.757,13.757v13.676
		l29.095-24.246c2.472-2.059,5.588-3.188,8.806-3.188h67.216V61.66H27.514v49.884c0,7.597-6.16,13.757-13.757,13.757
		S0,119.14,0,111.544V47.903c0-7.597,6.16-13.757,13.757-13.757H204.12c7.597,0,13.757,6.16,13.757,13.757v133.579
		c0,7.597-6.16,13.757-13.757,13.757h-75.994L80.293,235.1C77.772,237.199,74.644,238.288,71.484,238.288z"/>
	<path style="fill:#B3404A;" d="M440.516,238.288c-3.16,0-6.288-1.087-8.809-3.188l-47.834-39.862H307.88
		c-7.597,0-13.757-6.16-13.757-13.757V47.903c0-7.597,6.16-13.757,13.757-13.757h190.363c7.597,0,13.757,6.16,13.757,13.757v63.641
		c0,7.597-6.161,13.757-13.757,13.757s-13.757-6.16-13.757-13.757V61.66H321.637v106.064h67.216c3.219,0,6.334,1.128,8.806,3.188
		l29.095,24.246v-13.676c0-7.597,6.16-13.757,13.757-13.757h57.729c7.597,0,13.757,6.16,13.757,13.757
		c0,7.597-6.16,13.757-13.757,13.757h-43.972v29.292c0,5.338-3.087,10.194-7.923,12.459
		C444.488,237.86,442.496,238.288,440.516,238.288z"/>
</g>
<g>
</g>
<g>
</g>
<g>
</g>
<g>
</g>
<g>
</g>
<g>
</g>
<g>
</g>
<g>
</g>
<g>
</g>
<g>
</g>
<g>
</g>
<g>
</g>
<g>
</g>
<g>
</g>
<g>
</g>
</svg>
